<svg width="138" height="138" viewBox="0 0 138 138" fill="none" xmlns="http://www.w3.org/2000/svg">
<path d="M0 11.1034C0 4.97118 4.97118 0 11.1034 0H126.896C133.029 0 138 4.97118 138 11.1034V126.896C138 133.029 133.029 138 126.896 138H11.1034C4.97118 138 0 133.029 0 126.896V11.1034Z" fill="#472142"/>
<path fill-rule="evenodd" clip-rule="evenodd" d="M27.6 110.4V28.4365H36.8V110.4H27.6Z" fill="#F5811C"/>
<path fill-rule="evenodd" clip-rule="evenodd" d="M36.8 110.4C31.719 110.4 27.6 106.271 27.6 101.177V37.6592C27.6 32.5656 31.719 28.4365 36.8 28.4365C41.8809 28.4365 46.0001 32.5656 46.0001 37.6592V101.177C46.0001 106.271 41.8809 110.4 36.8 110.4Z" fill="#F5811C"/>
<path fill-rule="evenodd" clip-rule="evenodd" d="M43.7626 31.782L86.2371 101.066L70.9108 110.461L28.4363 41.1777L43.7626 31.782Z" fill="#F5811C"/>
<path fill-rule="evenodd" clip-rule="evenodd" d="M126.291 37.2184C126.291 42.0684 122.274 46.0001 117.318 46.0001H80.8998C75.9446 46.0001 71.9271 42.0684 71.9271 37.2184C71.9271 32.3683 75.9446 28.4365 80.8998 28.4365H117.318C122.274 28.4365 126.291 32.3683 126.291 37.2184Z" fill="#F5811C"/>
<path fill-rule="evenodd" clip-rule="evenodd" d="M126.291 36.8001H71.9271V28.4365H126.291V36.8001Z" fill="#F5811C"/>
<path fill-rule="evenodd" clip-rule="evenodd" d="M112.909 63.9821C112.909 68.8322 108.91 72.7638 103.977 72.7638H80.8593C75.9261 72.7638 71.9271 68.8322 71.9271 63.9821C71.9271 59.1321 75.9261 55.2 80.8593 55.2H103.977C108.91 55.2 112.909 59.1321 112.909 63.9821Z" fill="#F5811C"/>
<path fill-rule="evenodd" clip-rule="evenodd" d="M112.909 63.5639H71.9271V55.2H112.909V63.5639Z" fill="#F5811C"/>
<path fill-rule="evenodd" clip-rule="evenodd" d="M80.7092 110.4C75.8592 110.4 71.9271 106.39 71.9271 101.442V37.394C71.9271 32.447 75.8592 28.4365 80.7092 28.4365C85.5593 28.4365 89.4909 32.447 89.4909 37.394V101.442C89.4909 106.39 85.5593 110.4 80.7092 110.4Z" fill="#F5811C"/>
<path fill-rule="evenodd" clip-rule="evenodd" d="M71.0908 110.4V28.4365H80.291V110.4H71.0908Z" fill="#F5811C"/>
</svg>
