<svg width="129" height="107" viewBox="0 0 129 107" fill="none" xmlns="http://www.w3.org/2000/svg">
<path fill-rule="evenodd" clip-rule="evenodd" d="M0 106.92L0 -7.62939e-06H12.0013L12.0013 106.92H0Z" fill="white"/>
<path fill-rule="evenodd" clip-rule="evenodd" d="M12.0013 106.92C5.37315 106.92 0 101.534 0 94.8895L0 12.0308C0 5.38637 5.37315 -7.62939e-06 12.0013 -7.62939e-06C18.6294 -7.62939e-06 24.0025 5.38637 24.0025 12.0308L24.0025 94.8895C24.0025 101.534 18.6294 106.92 12.0013 106.92Z" fill="white"/>
<path fill-rule="evenodd" clip-rule="evenodd" d="M21.0837 4.36409L76.4911 94.7433L56.4984 107L1.09096 16.6208L21.0837 4.36409Z" fill="white"/>
<path fill-rule="evenodd" clip-rule="evenodd" d="M128.741 11.4557C128.741 17.7826 123.5 22.9115 117.036 22.9115L69.5289 22.9115C63.0646 22.9115 57.8242 17.7826 57.8242 11.4557C57.8242 5.12891 63.0646 0 69.5289 0L117.036 0C123.5 0 128.741 5.12891 128.741 11.4557Z" fill="white"/>
<path fill-rule="evenodd" clip-rule="evenodd" d="M128.741 10.9102L57.8242 10.9102V1.90735e-06L128.741 1.90735e-06V10.9102Z" fill="white"/>
<path fill-rule="evenodd" clip-rule="evenodd" d="M111.284 46.3685C111.284 52.6953 106.068 57.8242 99.6329 57.8242L69.4758 57.8242C63.0409 57.8242 57.8243 52.6953 57.8243 46.3685C57.8243 40.0417 63.0409 34.9128 69.4758 34.9128H99.6329C106.068 34.9128 111.284 40.0417 111.284 46.3685Z" fill="white"/>
<path fill-rule="evenodd" clip-rule="evenodd" d="M111.284 45.823L57.8243 45.823V34.9127L111.284 34.9127V45.823Z" fill="white"/>
<path fill-rule="evenodd" clip-rule="evenodd" d="M69.28 106.92C62.9531 106.92 57.8242 101.689 57.8242 95.2353L57.8242 11.685C57.8242 5.23154 62.9531 -7.62939e-06 69.28 -7.62939e-06C75.6068 -7.62939e-06 80.7357 5.23154 80.7357 11.685V95.2353C80.7357 101.689 75.6068 106.92 69.28 106.92Z" fill="white"/>
<path fill-rule="evenodd" clip-rule="evenodd" d="M56.7332 106.92L56.7332 -7.62939e-06H68.7344V106.92H56.7332Z" fill="white"/>
</svg>
